<mxfile host="app.diagrams.net" modified="2023-08-23T23:43:29.525Z" agent="Mozilla/5.0 (Windows NT 10.0; Win64; x64) AppleWebKit/537.36 (KHTML, like Gecko) Chrome/116.0.0.0 Safari/537.36" version="21.6.9" etag="j0SfK8fl1EPUDMc-PhsY" type="github">
  <diagram name="PÃ¡gina-1" id="NzW9spemHwEEmD8_f3NN">
    <mxGraphModel>
      <root>
        <mxCell id="0" />
        <mxCell id="1" parent="0" />
      </root>
    </mxGraphModel>
  </diagram>
</mxfile>
